<svg width="32" height="32" viewBox="0 0 32 32" fill="none" xmlns="http://www.w3.org/2000/svg">
<path opacity="0.3" d="M20.1965 15.7785C23.3743 13.4174 27.15 11.9929 31.0961 11.6662C31.0771 11.5934 31.055 11.5207 31.0328 11.4479C28.3135 11.0296 25.7989 9.75423 23.8554 7.80769C21.9119 5.86114 20.6411 3.34513 20.2281 0.626259L20.0414 0.572483C19.6998 4.51786 18.2592 8.28867 15.8828 11.4574C17.1083 13.095 18.5607 14.55 20.1965 15.7785Z" fill="#42EA95"/>
<path opacity="0.3" d="M11.4546 15.8575C8.27669 18.2206 4.49933 19.6454 0.551758 19.9698C0.573912 20.0426 0.5929 20.1153 0.615054 20.1881C3.33393 20.6062 5.84822 21.8811 7.79167 23.827C9.73512 25.773 11.0062 28.2883 11.4198 31.0066L11.6191 31.0635C11.9594 27.1199 13.3978 23.3503 15.7714 20.1818C14.5449 18.543 13.0914 17.0871 11.4546 15.8575Z" fill="#42EA95"/>
<path d="M15.8257 1.4771e-06C14.4367 -0.0005962 13.0536 0.180187 11.7114 0.537762L11.5279 0.591538C11.1208 3.33668 9.83898 5.87743 7.87259 7.8366C5.90621 9.79577 3.36014 11.0689 0.612389 11.467L0.549093 11.6821C-0.183031 14.393 -0.183031 17.2495 0.549093 19.9604C4.49666 19.636 8.27402 18.2112 11.4519 15.8481C13.1349 14.6044 14.6275 13.1221 15.8827 11.448C18.2574 8.28193 19.6979 4.51464 20.0412 0.572558C18.6684 0.192269 17.2503 -0.000335234 15.8257 1.4771e-06Z" fill="url(#paint0_linear_207_2)"/>
<path d="M31.0955 11.6725C26.0843 12.0948 21.3831 14.2714 17.8202 17.8187C14.2572 21.366 12.0612 26.0565 11.6191 31.0635C12.989 31.4422 14.4039 31.6337 15.8252 31.6329C17.2142 31.634 18.5974 31.4532 19.9395 31.0951L20.1325 31.0382C20.5401 28.2952 21.821 25.7564 23.7854 23.7981C25.7498 21.8398 28.2931 20.5662 31.0385 20.1659C31.0575 20.0932 31.0796 20.0236 31.0986 19.9508C31.835 17.2405 31.835 14.3829 31.0986 11.6725H31.0955Z" fill="url(#paint1_linear_207_2)"/>
<defs>
<linearGradient id="paint0_linear_207_2" x1="12.5501" y1="12.5361" x2="5.07842" y2="5.01022" gradientUnits="userSpaceOnUse">
<stop stop-color="#42EA95"/>
<stop offset="0.57" stop-color="#2BDDBA"/>
<stop offset="0.72" stop-color="#25DAC4"/>
<stop offset="1" stop-color="#03C7FD"/>
</linearGradient>
<linearGradient id="paint1_linear_207_2" x1="17.8222" y1="18.3755" x2="26.3132" y2="25.5666" gradientUnits="userSpaceOnUse">
<stop stop-color="#42EA95"/>
<stop offset="0.68" stop-color="#25DAC4"/>
<stop offset="1" stop-color="#03C7FD"/>
</linearGradient>
</defs>
</svg>
